<svg width="600" height="400" viewBox="0 0 600 400" fill="none" xmlns="http://www.w3.org/2000/svg">
  <rect width="600" height="400" rx="12" fill="#1A1A24"/>
  <rect x="120" y="80" width="360" height="240" rx="8" fill="#27272A"/>
  <rect x="140" y="100" width="160" height="100" rx="6" fill="#16161E"/>
  <rect x="320" y="100" width="140" height="100" rx="6" fill="#16161E"/>
  <rect x="140" y="220" width="320" height="80" rx="6" fill="#16161E"/>
  <polyline points="160,170 190,140 220,155 250,125 280,145" stroke="#6C63FF" stroke-width="2" fill="none" stroke-linecap="round" stroke-linejoin="round"/>
  <rect x="340" y="125" width="20" height="55" rx="3" fill="#6C63FF" opacity="0.4"/>
  <rect x="370" y="140" width="20" height="40" rx="3" fill="#6C63FF" opacity="0.6"/>
  <rect x="400" y="115" width="20" height="65" rx="3" fill="#6C63FF" opacity="0.3"/>
  <rect x="430" y="130" width="20" height="50" rx="3" fill="#6C63FF" opacity="0.5"/>
  <rect x="160" y="240" width="280" height="8" rx="3" fill="#27272A"/>
  <rect x="160" y="240" width="180" height="8" rx="3" fill="#6C63FF" opacity="0.4"/>
  <rect x="160" y="260" width="280" height="8" rx="3" fill="#27272A"/>
  <rect x="160" y="260" width="220" height="8" rx="3" fill="#22C55E" opacity="0.4"/>
  <rect x="160" y="280" width="280" height="8" rx="3" fill="#27272A"/>
  <rect x="160" y="280" width="140" height="8" rx="3" fill="#F59E0B" opacity="0.4"/>
  <text x="300" y="360" text-anchor="middle" fill="#71717A" font-family="system-ui" font-size="13">Portfolio Dashboard</text>
</svg>
